<svg width="15" height="15" viewBox="0 0 15 15" fill="none" xmlns="http://www.w3.org/2000/svg">
<path d="M1.5 11.2632V8.94737H2.68462V11.2632C2.68462 11.4167 2.74706 11.5639 2.85814 11.6725C2.96922 11.7811 3.11983 11.8421 3.27692 11.8421H11.5692C11.7263 11.8421 11.8769 11.7811 11.988 11.6725C12.0991 11.5639 12.1615 11.4167 12.1615 11.2632V8.94737H13.3462V11.2632C13.3462 11.7238 13.1588 12.1654 12.8256 12.4912C12.4923 12.8169 12.0405 13 11.5692 13H3.27692C2.80565 13 2.35382 12.8169 2.02058 12.4912C1.68735 12.1654 1.5 11.7238 1.5 11.2632ZM8.01538 2V7.54975L9.96584 5.6433L10.8034 6.46197L7.42308 9.76604L4.04276 6.46197L4.88032 5.6433L6.83077 7.54975V2H8.01538Z" fill="#F5F5EF"/>
</svg>
