<svg preserveAspectRatio="none" width="100%" height="100%" overflow="visible" style="display: block;" viewBox="0 0 14.4 14.4" fill="none" xmlns="http://www.w3.org/2000/svg">
<g id="file-input">
<path id="Vector" d="M2.3998 13.2H10.7998C11.1181 13.2 11.4233 13.0736 11.6483 12.8485C11.8734 12.6235 11.9998 12.3183 11.9998 12V4.2L8.9998 1.2H3.5998C3.28154 1.2 2.97632 1.32643 2.75128 1.55147C2.52623 1.77652 2.3998 2.08174 2.3998 2.4V4.8M8.3998 1.2V3.6C8.3998 3.91826 8.52623 4.22348 8.75128 4.44853C8.97632 4.67357 9.28155 4.8 9.5998 4.8H11.9998M1.1998 9H7.1998M7.1998 9L5.3998 10.8M7.1998 9L5.3998 7.2" stroke="var(--stroke-0, #152521)" stroke-opacity="0.5" stroke-width="1.2" stroke-linecap="round" stroke-linejoin="round"/>
</g>
</svg>
