<svg preserveAspectRatio="none" width="100%" height="100%" overflow="visible" style="display: block;" viewBox="0 0 14.4 14.4" fill="none" xmlns="http://www.w3.org/2000/svg">
<g id="globe">
<path id="Vector" d="M13.2002 7.2C13.2002 10.5137 10.5139 13.2 7.2002 13.2M13.2002 7.2C13.2002 3.88629 10.5139 1.2 7.2002 1.2M13.2002 7.2H1.2002M7.2002 13.2C3.88649 13.2 1.2002 10.5137 1.2002 7.2M7.2002 13.2C5.65954 11.5823 4.8002 9.43396 4.8002 7.2C4.8002 4.96604 5.65954 2.81769 7.2002 1.2M7.2002 13.2C8.74085 11.5823 9.6002 9.43396 9.6002 7.2C9.6002 4.96604 8.74085 2.81769 7.2002 1.2M1.2002 7.2C1.2002 3.88629 3.88649 1.2 7.2002 1.2" stroke="var(--stroke-0, #152521)" stroke-opacity="0.5" stroke-width="1.2" stroke-linecap="round" stroke-linejoin="round"/>
</g>
</svg>
