<svg preserveAspectRatio="none" width="100%" height="100%" overflow="visible" style="display: block;" viewBox="0 0 14.4 14.4" fill="none" xmlns="http://www.w3.org/2000/svg">
<g id="wallet-cards">
<path id="Vector" d="M1.8002 5.40039C1.8002 5.08213 1.92662 4.77691 2.15167 4.55186C2.37671 4.32682 2.68194 4.20039 3.0002 4.20039H11.4002C11.7185 4.20039 12.0237 4.32682 12.2487 4.55186C12.4738 4.77691 12.6002 5.08213 12.6002 5.40039M1.8002 6.60039H3.6002C4.0802 6.60039 4.5602 6.78039 4.8602 7.14039L5.5202 7.68039C6.4802 8.64039 7.9802 8.64039 8.9402 7.68039L9.6002 7.14039C9.9002 6.84039 10.3802 6.60039 10.8602 6.60039H12.6002M3.0002 1.80039H11.4002C12.0629 1.80039 12.6002 2.33765 12.6002 3.00039V11.4004C12.6002 12.0631 12.0629 12.6004 11.4002 12.6004H3.0002C2.33745 12.6004 1.8002 12.0631 1.8002 11.4004V3.00039C1.8002 2.33765 2.33745 1.80039 3.0002 1.80039Z" stroke="var(--stroke-0, #152521)" stroke-opacity="0.5" stroke-width="1.2" stroke-linecap="round" stroke-linejoin="round"/>
</g>
</svg>
