<svg width="7" height="9" viewBox="0 0 7 9" fill="none" xmlns="http://www.w3.org/2000/svg">
  <path d="M5.35996 9C5.02657 9 4.73986 8.92571 4.49934 8.77669C4.25882 8.62766 4.07689 8.3931 3.95306 8.07344C3.87542 7.85778 3.82113 7.5935 3.79017 7.28059C3.75921 6.96814 3.73969 6.64037 3.73207 6.2982C3.72445 5.94837 3.71635 5.60981 3.70873 5.28204C3.70873 5.1929 3.68539 5.14787 3.63919 5.14787C3.60062 5.14787 3.56156 5.17759 3.52298 5.23702C3.37582 5.4977 3.2015 5.7953 2.99956 6.13027C2.80572 6.46523 2.61188 6.8002 2.41803 7.13517C2.22419 7.47014 2.04988 7.77179 1.89461 8.03967C1.74744 8.30035 1.64267 8.4899 1.58075 8.60921C1.50312 8.77309 1.37929 8.87709 1.20878 8.92166C1.0459 8.97389 0.840625 8.98514 0.592487 8.95498C0.34435 8.92526 0.170035 8.83207 0.0690655 8.67584C-0.0395243 8.51196 -0.0199972 8.34087 0.127171 8.16213C0.22814 8.04282 0.371498 7.86453 0.557243 7.62636C0.743465 7.38054 0.952548 7.10545 1.18497 6.8002C1.41739 6.48774 1.6541 6.16763 1.89414 5.83987C2.14227 5.5049 2.37469 5.18479 2.59187 4.87954C2.80905 4.56708 2.99099 4.29515 3.13816 4.06463C3.29342 3.82646 3.39391 3.65133 3.44059 3.53967C3.48726 3.43567 3.53727 3.31996 3.59157 3.19345C3.64586 3.06693 3.67301 2.93682 3.67301 2.80265C3.67301 2.31146 3.62252 1.94272 3.52203 1.69735C3.42916 1.44432 3.30104 1.27684 3.13816 1.1949C2.98289 1.10575 2.81239 1.06073 2.62664 1.06073C2.48709 1.06073 2.33612 1.08684 2.17323 1.13907C2.01797 1.1913 1.91747 1.23947 1.8708 1.28404C1.78555 1.36598 1.7041 1.38084 1.62647 1.32861C1.54884 1.27639 1.5255 1.19085 1.55694 1.07199C1.64219 0.796448 1.79745 0.551076 2.02225 0.334967C2.24801 0.111656 2.56187 0 2.96479 0C3.39106 0 3.72826 0.115258 3.97639 0.346223C4.22453 0.577189 4.40266 0.945473 4.51125 1.45153C4.61984 1.95758 4.67413 2.62751 4.67413 3.46133C4.67413 4.44372 4.68985 5.22937 4.72081 5.81736C4.75176 6.40535 4.80225 6.84837 4.87178 7.14597C4.94132 7.43637 5.03848 7.62997 5.16231 7.72676C5.29424 7.82356 5.45664 7.87174 5.65049 7.87174C5.84433 7.87174 6.01102 7.83437 6.17391 7.76008C6.34441 7.68579 6.49158 7.589 6.61589 7.46969C6.67018 7.41026 6.7321 7.38774 6.80211 7.4026C6.87165 7.41746 6.92594 7.45843 6.96499 7.52551C7.01167 7.58494 7.01167 7.66328 6.96499 7.76008C6.80211 8.1027 6.58493 8.3967 6.31393 8.64207C6.05055 8.88024 5.7324 8.99955 5.36044 8.99955L5.35996 9Z" fill="#000"/>
</svg>
